<mxfile host="app.diagrams.net" agent="Mozilla/5.0 (X11; Linux x86_64) AppleWebKit/537.36 (KHTML, like Gecko) Chrome/126.0.0.0 Safari/537.36" version="24.7.6">
  <diagram name="Trang-1" id="A_eeGlD88GL2Km3bQYaJ">
    <mxGraphModel dx="1434" dy="754" grid="1" gridSize="10" guides="1" tooltips="1" connect="1" arrows="1" fold="1" page="1" pageScale="1" pageWidth="827" pageHeight="1169" math="0" shadow="0">
      <root>
        <mxCell id="0" />
        <mxCell id="1" parent="0" />
        <mxCell id="Gii7YrUVnjGIDU6zJAtJ-3" value="" style="edgeStyle=orthogonalEdgeStyle;rounded=0;orthogonalLoop=1;jettySize=auto;html=1;" parent="1" source="Gii7YrUVnjGIDU6zJAtJ-1" target="Gii7YrUVnjGIDU6zJAtJ-2" edge="1">
          <mxGeometry relative="1" as="geometry" />
        </mxCell>
        <mxCell id="Gii7YrUVnjGIDU6zJAtJ-5" style="rounded=0;orthogonalLoop=1;jettySize=auto;html=1;entryX=0;entryY=0.5;entryDx=0;entryDy=0;" parent="1" source="Gii7YrUVnjGIDU6zJAtJ-1" target="Gii7YrUVnjGIDU6zJAtJ-4" edge="1">
          <mxGeometry relative="1" as="geometry" />
        </mxCell>
        <mxCell id="Gii7YrUVnjGIDU6zJAtJ-1" value="Guest" style="shape=umlActor;verticalLabelPosition=bottom;verticalAlign=top;html=1;outlineConnect=0;" parent="1" vertex="1">
          <mxGeometry x="70" y="130" width="30" height="60" as="geometry" />
        </mxCell>
        <mxCell id="Gii7YrUVnjGIDU6zJAtJ-2" value="Login" style="ellipse;whiteSpace=wrap;html=1;verticalAlign=top;" parent="1" vertex="1">
          <mxGeometry x="310" y="145" width="120" height="30" as="geometry" />
        </mxCell>
        <mxCell id="Gii7YrUVnjGIDU6zJAtJ-4" value="Checkin/Checkout" style="ellipse;whiteSpace=wrap;html=1;verticalAlign=top;" parent="1" vertex="1">
          <mxGeometry x="310" y="197" width="120" height="30" as="geometry" />
        </mxCell>
        <mxCell id="Gii7YrUVnjGIDU6zJAtJ-11" style="rounded=0;orthogonalLoop=1;jettySize=auto;html=1;entryX=0;entryY=0.5;entryDx=0;entryDy=0;" parent="1" source="Gii7YrUVnjGIDU6zJAtJ-6" target="Gii7YrUVnjGIDU6zJAtJ-4" edge="1">
          <mxGeometry relative="1" as="geometry" />
        </mxCell>
        <mxCell id="Gii7YrUVnjGIDU6zJAtJ-13" style="rounded=0;orthogonalLoop=1;jettySize=auto;html=1;entryX=0;entryY=0.5;entryDx=0;entryDy=0;" parent="1" source="Gii7YrUVnjGIDU6zJAtJ-6" target="Gii7YrUVnjGIDU6zJAtJ-12" edge="1">
          <mxGeometry relative="1" as="geometry" />
        </mxCell>
        <mxCell id="Gii7YrUVnjGIDU6zJAtJ-15" style="rounded=0;orthogonalLoop=1;jettySize=auto;html=1;entryX=0;entryY=0.5;entryDx=0;entryDy=0;" parent="1" source="Gii7YrUVnjGIDU6zJAtJ-6" target="Gii7YrUVnjGIDU6zJAtJ-14" edge="1">
          <mxGeometry relative="1" as="geometry" />
        </mxCell>
        <mxCell id="Gii7YrUVnjGIDU6zJAtJ-6" value="Student" style="shape=umlActor;verticalLabelPosition=bottom;verticalAlign=top;html=1;outlineConnect=0;" parent="1" vertex="1">
          <mxGeometry x="70" y="270" width="30" height="60" as="geometry" />
        </mxCell>
        <mxCell id="aDHjPS7s_MSOJD6Ffrus-5" style="rounded=0;orthogonalLoop=1;jettySize=auto;html=1;entryX=0;entryY=0.5;entryDx=0;entryDy=0;" edge="1" parent="1" source="Gii7YrUVnjGIDU6zJAtJ-7" target="aDHjPS7s_MSOJD6Ffrus-1">
          <mxGeometry relative="1" as="geometry" />
        </mxCell>
        <mxCell id="aDHjPS7s_MSOJD6Ffrus-22" style="rounded=0;orthogonalLoop=1;jettySize=auto;html=1;entryX=1;entryY=0.5;entryDx=0;entryDy=0;" edge="1" parent="1" source="Gii7YrUVnjGIDU6zJAtJ-7" target="aDHjPS7s_MSOJD6Ffrus-6">
          <mxGeometry relative="1" as="geometry" />
        </mxCell>
        <mxCell id="aDHjPS7s_MSOJD6Ffrus-23" style="rounded=0;orthogonalLoop=1;jettySize=auto;html=1;entryX=1;entryY=0.5;entryDx=0;entryDy=0;" edge="1" parent="1" source="Gii7YrUVnjGIDU6zJAtJ-7" target="aDHjPS7s_MSOJD6Ffrus-8">
          <mxGeometry relative="1" as="geometry" />
        </mxCell>
        <mxCell id="aDHjPS7s_MSOJD6Ffrus-24" style="rounded=0;orthogonalLoop=1;jettySize=auto;html=1;entryX=1;entryY=0.5;entryDx=0;entryDy=0;" edge="1" parent="1" source="Gii7YrUVnjGIDU6zJAtJ-7" target="aDHjPS7s_MSOJD6Ffrus-11">
          <mxGeometry relative="1" as="geometry" />
        </mxCell>
        <mxCell id="aDHjPS7s_MSOJD6Ffrus-25" style="rounded=0;orthogonalLoop=1;jettySize=auto;html=1;entryX=1;entryY=0.5;entryDx=0;entryDy=0;" edge="1" parent="1" source="Gii7YrUVnjGIDU6zJAtJ-7" target="aDHjPS7s_MSOJD6Ffrus-12">
          <mxGeometry relative="1" as="geometry" />
        </mxCell>
        <mxCell id="aDHjPS7s_MSOJD6Ffrus-26" style="rounded=0;orthogonalLoop=1;jettySize=auto;html=1;entryX=1;entryY=0.5;entryDx=0;entryDy=0;" edge="1" parent="1" source="Gii7YrUVnjGIDU6zJAtJ-7" target="aDHjPS7s_MSOJD6Ffrus-13">
          <mxGeometry relative="1" as="geometry" />
        </mxCell>
        <mxCell id="aDHjPS7s_MSOJD6Ffrus-27" style="rounded=0;orthogonalLoop=1;jettySize=auto;html=1;entryX=1;entryY=0.5;entryDx=0;entryDy=0;" edge="1" parent="1" source="Gii7YrUVnjGIDU6zJAtJ-7" target="aDHjPS7s_MSOJD6Ffrus-14">
          <mxGeometry relative="1" as="geometry" />
        </mxCell>
        <mxCell id="aDHjPS7s_MSOJD6Ffrus-28" style="rounded=0;orthogonalLoop=1;jettySize=auto;html=1;entryX=1;entryY=0.5;entryDx=0;entryDy=0;" edge="1" parent="1" source="Gii7YrUVnjGIDU6zJAtJ-7" target="aDHjPS7s_MSOJD6Ffrus-15">
          <mxGeometry relative="1" as="geometry" />
        </mxCell>
        <mxCell id="Gii7YrUVnjGIDU6zJAtJ-7" value="Teacher" style="shape=umlActor;verticalLabelPosition=bottom;verticalAlign=top;html=1;outlineConnect=0;" parent="1" vertex="1">
          <mxGeometry x="600" y="480" width="30" height="60" as="geometry" />
        </mxCell>
        <mxCell id="aDHjPS7s_MSOJD6Ffrus-7" style="rounded=0;orthogonalLoop=1;jettySize=auto;html=1;entryX=0;entryY=0.5;entryDx=0;entryDy=0;" edge="1" parent="1" source="Gii7YrUVnjGIDU6zJAtJ-8" target="aDHjPS7s_MSOJD6Ffrus-6">
          <mxGeometry relative="1" as="geometry" />
        </mxCell>
        <mxCell id="aDHjPS7s_MSOJD6Ffrus-9" style="rounded=0;orthogonalLoop=1;jettySize=auto;html=1;entryX=0;entryY=0.5;entryDx=0;entryDy=0;" edge="1" parent="1" source="Gii7YrUVnjGIDU6zJAtJ-8" target="aDHjPS7s_MSOJD6Ffrus-8">
          <mxGeometry relative="1" as="geometry" />
        </mxCell>
        <mxCell id="aDHjPS7s_MSOJD6Ffrus-16" style="rounded=0;orthogonalLoop=1;jettySize=auto;html=1;entryX=0;entryY=0.5;entryDx=0;entryDy=0;" edge="1" parent="1" source="Gii7YrUVnjGIDU6zJAtJ-8" target="aDHjPS7s_MSOJD6Ffrus-11">
          <mxGeometry relative="1" as="geometry" />
        </mxCell>
        <mxCell id="aDHjPS7s_MSOJD6Ffrus-17" style="rounded=0;orthogonalLoop=1;jettySize=auto;html=1;entryX=0;entryY=0.5;entryDx=0;entryDy=0;" edge="1" parent="1" source="Gii7YrUVnjGIDU6zJAtJ-8" target="aDHjPS7s_MSOJD6Ffrus-12">
          <mxGeometry relative="1" as="geometry" />
        </mxCell>
        <mxCell id="aDHjPS7s_MSOJD6Ffrus-18" style="rounded=0;orthogonalLoop=1;jettySize=auto;html=1;entryX=0;entryY=0.5;entryDx=0;entryDy=0;" edge="1" parent="1" source="Gii7YrUVnjGIDU6zJAtJ-8" target="aDHjPS7s_MSOJD6Ffrus-13">
          <mxGeometry relative="1" as="geometry" />
        </mxCell>
        <mxCell id="aDHjPS7s_MSOJD6Ffrus-19" style="rounded=0;orthogonalLoop=1;jettySize=auto;html=1;entryX=0;entryY=0.5;entryDx=0;entryDy=0;" edge="1" parent="1" source="Gii7YrUVnjGIDU6zJAtJ-8" target="aDHjPS7s_MSOJD6Ffrus-14">
          <mxGeometry relative="1" as="geometry" />
        </mxCell>
        <mxCell id="aDHjPS7s_MSOJD6Ffrus-20" style="rounded=0;orthogonalLoop=1;jettySize=auto;html=1;entryX=0;entryY=0.5;entryDx=0;entryDy=0;" edge="1" parent="1" source="Gii7YrUVnjGIDU6zJAtJ-8" target="aDHjPS7s_MSOJD6Ffrus-15">
          <mxGeometry relative="1" as="geometry" />
        </mxCell>
        <mxCell id="Gii7YrUVnjGIDU6zJAtJ-8" value="Assistant Teacher&amp;nbsp;" style="shape=umlActor;verticalLabelPosition=bottom;verticalAlign=top;html=1;outlineConnect=0;" parent="1" vertex="1">
          <mxGeometry x="70" y="503" width="30" height="60" as="geometry" />
        </mxCell>
        <mxCell id="Gii7YrUVnjGIDU6zJAtJ-9" value="Education Manager" style="shape=umlActor;verticalLabelPosition=bottom;verticalAlign=top;html=1;outlineConnect=0;" parent="1" vertex="1">
          <mxGeometry x="70" y="770" width="30" height="60" as="geometry" />
        </mxCell>
        <mxCell id="Gii7YrUVnjGIDU6zJAtJ-10" value="Admin" style="shape=umlActor;verticalLabelPosition=bottom;verticalAlign=top;html=1;outlineConnect=0;" parent="1" vertex="1">
          <mxGeometry x="70" y="877" width="30" height="60" as="geometry" />
        </mxCell>
        <mxCell id="Gii7YrUVnjGIDU6zJAtJ-12" value="View attendance history" style="ellipse;whiteSpace=wrap;html=1;verticalAlign=top;" parent="1" vertex="1">
          <mxGeometry x="310" y="243" width="120" height="40" as="geometry" />
        </mxCell>
        <mxCell id="Gii7YrUVnjGIDU6zJAtJ-14" value="Make off request" style="ellipse;whiteSpace=wrap;html=1;verticalAlign=top;" parent="1" vertex="1">
          <mxGeometry x="310" y="300" width="120" height="30" as="geometry" />
        </mxCell>
        <mxCell id="aDHjPS7s_MSOJD6Ffrus-3" value="" style="rounded=0;orthogonalLoop=1;jettySize=auto;html=1;" edge="1" parent="1" source="aDHjPS7s_MSOJD6Ffrus-1" target="aDHjPS7s_MSOJD6Ffrus-2">
          <mxGeometry relative="1" as="geometry" />
        </mxCell>
        <mxCell id="aDHjPS7s_MSOJD6Ffrus-4" value="&amp;lt;&amp;lt;include&amp;gt;&amp;gt;" style="edgeLabel;html=1;align=center;verticalAlign=middle;resizable=0;points=[];" vertex="1" connectable="0" parent="aDHjPS7s_MSOJD6Ffrus-3">
          <mxGeometry x="-0.1333" y="-2" relative="1" as="geometry">
            <mxPoint as="offset" />
          </mxGeometry>
        </mxCell>
        <mxCell id="aDHjPS7s_MSOJD6Ffrus-1" value="Invite AT" style="ellipse;whiteSpace=wrap;html=1;verticalAlign=top;" vertex="1" parent="1">
          <mxGeometry x="710" y="495" width="120" height="30" as="geometry" />
        </mxCell>
        <mxCell id="aDHjPS7s_MSOJD6Ffrus-2" value="Asign permission" style="ellipse;whiteSpace=wrap;html=1;verticalAlign=top;" vertex="1" parent="1">
          <mxGeometry x="980" y="487.5" width="80" height="45" as="geometry" />
        </mxCell>
        <mxCell id="aDHjPS7s_MSOJD6Ffrus-6" value="Add attendance record manual" style="ellipse;whiteSpace=wrap;html=1;verticalAlign=top;" vertex="1" parent="1">
          <mxGeometry x="310" y="350" width="120" height="40" as="geometry" />
        </mxCell>
        <mxCell id="aDHjPS7s_MSOJD6Ffrus-8" value="Manage attendance record" style="ellipse;whiteSpace=wrap;html=1;verticalAlign=top;" vertex="1" parent="1">
          <mxGeometry x="310" y="407" width="120" height="40" as="geometry" />
        </mxCell>
        <mxCell id="aDHjPS7s_MSOJD6Ffrus-11" value="Create attendance session" style="ellipse;whiteSpace=wrap;html=1;verticalAlign=top;" vertex="1" parent="1">
          <mxGeometry x="310" y="463" width="120" height="40" as="geometry" />
        </mxCell>
        <mxCell id="aDHjPS7s_MSOJD6Ffrus-12" value="Create report" style="ellipse;whiteSpace=wrap;html=1;verticalAlign=top;" vertex="1" parent="1">
          <mxGeometry x="310" y="520" width="120" height="40" as="geometry" />
        </mxCell>
        <mxCell id="aDHjPS7s_MSOJD6Ffrus-13" value="View dashboard" style="ellipse;whiteSpace=wrap;html=1;verticalAlign=top;" vertex="1" parent="1">
          <mxGeometry x="310" y="577" width="120" height="40" as="geometry" />
        </mxCell>
        <mxCell id="aDHjPS7s_MSOJD6Ffrus-14" value="Approve off request" style="ellipse;whiteSpace=wrap;html=1;verticalAlign=top;" vertex="1" parent="1">
          <mxGeometry x="310" y="633" width="120" height="40" as="geometry" />
        </mxCell>
        <mxCell id="aDHjPS7s_MSOJD6Ffrus-15" value="Access invite" style="ellipse;whiteSpace=wrap;html=1;verticalAlign=top;" vertex="1" parent="1">
          <mxGeometry x="310" y="690" width="120" height="40" as="geometry" />
        </mxCell>
      </root>
    </mxGraphModel>
  </diagram>
</mxfile>
